<?xml version="1.0" standalone="no"?>
<!DOCTYPE svg PUBLIC "-//W3C//DTD SVG 20010904//EN"
 "http://www.w3.org/TR/2001/REC-SVG-20010904/DTD/svg10.dtd">
<svg version="1.0" xmlns="http://www.w3.org/2000/svg"
 width="208.000000pt" height="208.000000pt" viewBox="0 0 208.000000 208.000000"
 preserveAspectRatio="xMidYMid meet">
<metadata>
Created by potrace 1.14, written by Peter Selinger 2001-2017
</metadata>
<g transform="translate(0.000000,208.000000) scale(0.100000,-0.100000)"
fill="#000000" stroke="none">
<path d="M60 1948 c-15 -158 -28 -572 -17 -576 15 -7 6 -20 -18 -26 -21 -5
-25 -12 -25 -46 0 -22 5 -40 10 -40 6 0 10 5 10 10 0 22 19 8 29 -22 9 -27 9
-33 -4 -41 -11 -6 -13 -13 -7 -20 10 -13 27 -92 36 -167 7 -62 21 -134 51
-274 14 -66 24 -123 23 -128 -2 -5 -36 21 -76 58 l-72 66 0 -371 0 -371 216 0
215 0 -19 28 c-29 41 -87 158 -120 242 -53 134 -114 333 -109 357 2 12 1 20
-3 18 -14 -9 -33 121 -21 142 12 20 14 12 12 -42 -1 -28 0 -28 9 -7 5 12 12
22 15 22 4 0 3 -5 -1 -11 -4 -7 -1 -10 7 -7 9 3 13 18 12 44 l-2 39 9 -34 c4
-19 5 -44 0 -55 -5 -14 0 -36 16 -68 13 -26 24 -56 24 -67 0 -27 53 -240 80
-321 12 -36 42 -113 67 -172 l45 -108 714 0 714 0 -12 25 c-9 20 -8 31 2 50
18 33 30 32 30 -2 0 -43 11 -73 26 -73 16 0 17 10 5 42 -4 13 -11 40 -15 60
-9 47 10 52 19 6 4 -18 12 -50 17 -70 l11 -38 59 0 58 0 0 265 c0 146 -2 265
-4 265 -2 0 -18 -37 -36 -82 -42 -109 -126 -265 -190 -355 -59 -85 -75 -97
-26 -21 51 82 110 221 150 358 20 69 52 158 71 198 49 101 44 107 -16 18 -27
-41 -55 -78 -60 -82 -6 -3 5 18 25 47 19 30 46 81 60 114 23 56 24 74 25 243
1 116 -2 182 -9 182 -5 0 -10 10 -11 23 0 32 -35 -82 -60 -198 -11 -55 -25
-108 -30 -118 -5 -10 -7 -22 -4 -26 3 -5 -2 -11 -10 -15 -18 -7 -18 -6 -1 52
19 63 54 200 60 237 4 25 2 22 -14 -14 -11 -24 -23 -62 -26 -85 -4 -22 -10
-45 -14 -51 -5 -5 -10 -26 -13 -45 -3 -19 -14 -62 -26 -96 -11 -33 -23 -78
-25 -100 -3 -21 -10 -54 -15 -72 -5 -18 -10 -33 -9 -35 1 -7 -23 -87 -27 -87
-8 0 7 167 21 233 37 176 160 548 197 595 6 7 12 61 14 120 3 100 2 105 -11
71 -7 -19 -23 -54 -35 -77 -20 -40 -22 -41 -52 -30 -18 6 -62 8 -106 5 -64 -5
-73 -4 -62 9 6 8 9 14 5 14 -13 0 23 56 58 89 27 26 36 31 36 18 0 -9 5 -17
10 -17 6 0 10 -12 11 -27 0 -20 10 -3 34 57 36 90 45 96 20 14 -20 -66 -18
-77 6 -31 19 35 45 53 33 22 -12 -30 6 -14 20 18 14 30 14 31 16 7 3 -47 19
10 19 70 l1 55 -31 -62 c-17 -35 -35 -63 -39 -63 -10 0 7 58 22 77 5 7 7 16 4
21 -2 4 6 51 19 103 17 66 24 120 24 179 l-1 85 -28 -135 c-15 -74 -33 -155
-40 -180 -20 -67 -25 -21 -6 58 8 37 20 99 26 137 6 39 13 82 16 98 3 15 1 27
-4 27 -6 0 -13 -27 -17 -59 -7 -65 -50 -269 -57 -277 -8 -8 -83 24 -81 34 2 6
5 30 8 54 l5 43 -16 -48 c-9 -27 -18 -46 -21 -43 -4 3 -13 1 -20 -6 -12 -10
-14 3 -8 88 4 54 10 125 14 157 6 41 4 57 -4 57 -11 0 -35 -193 -35 -276 0
-26 -5 -33 -26 -38 -15 -4 -27 -6 -29 -4 -4 5 43 232 54 261 16 41 14 57 -8
57 -16 0 -21 -16 -35 -112 -32 -210 -34 -216 -68 -232 l-30 -15 6 47 c7 64 24
217 30 272 6 60 -10 30 -18 -35 -23 -174 -62 -364 -86 -425 -10 -25 -23 -66
-30 -91 -14 -53 -7 -51 -192 -51 -110 1 -118 -1 -118 -19 0 -10 -4 -19 -9 -19
-22 0 -55 300 -48 433 5 94 -6 136 -16 60 -8 -65 -7 -456 2 -500 10 -52 4 -60
-21 -28 -26 33 -56 124 -73 219 -25 139 -32 91 -9 -69 l4 -30 -9 30 c-5 17
-12 47 -16 69 -3 21 -9 35 -12 32 -12 -12 36 -215 79 -339 12 -32 22 -56 24
-54 4 3 -7 67 -22 127 l-5 25 20 -27 c14 -17 28 -24 40 -21 17 4 18 13 13 96
-2 51 -2 90 1 87 3 -3 15 -43 27 -90 28 -108 34 -117 40 -55 l5 50 95 1 c52 1
109 4 127 8 30 7 33 5 41 -26 10 -39 -7 -82 -47 -115 -34 -29 -16 -29 65 2 75
28 98 31 69 9 -18 -13 -20 -25 -17 -96 1 -45 7 -87 13 -94 9 -11 4 -14 -27
-14 -46 0 -85 -19 -44 -21 55 -3 96 -1 115 6 99 33 176 118 214 236 10 32 14
35 41 31 35 -5 37 -16 10 -57 -11 -16 -20 -39 -20 -51 0 -11 -13 -45 -30 -75
-16 -30 -39 -85 -51 -124 -11 -38 -34 -115 -51 -170 -40 -134 -70 -186 -149
-259 -93 -86 -202 -142 -554 -287 -93 -39 -187 -77 -208 -86 -26 -11 -51 -13
-83 -8 -56 8 -279 118 -391 192 -72 47 -84 59 -93 94 -20 72 -8 75 43 11 50
-64 92 -96 142 -107 29 -7 29 -6 -10 21 -50 35 -62 49 -129 149 -62 92 -91
169 -106 275 -5 41 -17 120 -26 175 -9 55 -19 139 -21 186 l-4 86 57 11 c94
19 90 22 97 -63 7 -91 10 -98 44 -82 23 10 28 8 49 -18 21 -27 30 -30 81 -31
32 -1 63 3 70 8 7 6 14 4 19 -3 11 -18 -33 -49 -72 -50 -19 -1 -44 -1 -57 -2
-36 -2 -51 11 -35 31 11 14 10 15 -5 9 -10 -4 -23 -7 -29 -7 -6 0 -8 -10 -4
-24 3 -14 2 -28 -4 -31 -5 -3 -10 -13 -10 -22 0 -15 2 -15 18 -1 10 10 37 16
67 17 99 2 107 5 147 47 41 44 48 64 22 64 -8 0 -12 5 -9 10 4 6 15 8 24 5 23
-7 36 9 52 63 13 46 14 46 82 26 27 -8 20 13 -13 36 -16 12 -30 30 -30 40 0
10 -9 22 -20 25 -11 3 -20 12 -20 19 0 12 -99 36 -149 36 -11 0 -21 4 -21 9 0
4 51 6 114 4 68 -2 117 0 120 6 10 15 -30 24 -134 30 l-94 6 -8 30 c-4 17 -13
57 -20 90 -10 48 -13 54 -16 30 -1 -17 1 -56 6 -88 9 -56 1 -79 -12 -34 -28
97 -55 220 -58 257 l-3 44 44 4 c59 5 192 -15 261 -39 62 -22 70 -23 70 -9 0
13 -90 58 -154 77 -30 9 -88 16 -140 16 l-89 -1 7 114 c3 65 2 114 -3 114 -12
0 -19 -33 -31 -141 -9 -91 -17 -109 -51 -109 -14 0 -15 15 -11 125 4 111 3
125 -12 125 -14 0 -16 -16 -17 -112 -1 -62 -1 -120 0 -129 1 -9 -5 -22 -14
-29 -18 -15 -20 -30 -2 -30 9 0 16 -33 24 -107 7 -60 21 -135 31 -168 24 -73
23 -73 -91 -74 l-77 -1 6 83 c3 45 10 118 15 162 5 44 9 89 10 100 0 11 9 81
19 155 11 74 20 138 20 143 0 4 -40 7 -88 7 l-88 0 -14 -132z m316 -190 c-4
-24 -7 -88 -7 -143 -2 -128 -17 -88 -26 66 -5 99 -5 107 13 112 10 2 21 5 23
6 2 0 0 -18 -3 -41z m74 -157 c17 -63 28 -116 26 -119 -3 -2 -22 -5 -43 -6
l-38 -1 -3 105 c-2 58 0 125 4 150 7 44 7 45 15 15 5 -16 22 -81 39 -144z
m1353 -4 l-6 -137 -54 0 c-47 0 -54 2 -49 18 3 9 15 60 26 112 11 52 22 105
25 117 3 15 14 23 33 25 15 2 28 3 29 3 1 -1 0 -63 -4 -138z m34 81 c-2 -13
-4 -3 -4 22 0 25 2 35 4 23 2 -13 2 -33 0 -45z m92 41 c26 -9 31 -15 26 -33
-15 -52 -30 -73 -75 -108 l-48 -37 13 57 c7 31 16 74 19 95 7 40 15 43 65 26z
m-209 -23 c0 -43 -43 -215 -60 -238 -11 -15 -17 -34 -14 -42 3 -9 1 -16 -6
-16 -6 0 -8 5 -5 10 3 6 2 10 -4 10 -6 0 -8 8 -5 18 5 13 4 14 -4 3 -6 -8 -8
-20 -5 -27 5 -13 -43 -51 -53 -41 -3 3 -1 14 4 24 5 10 20 61 33 113 l24 95 5
-70 5 -70 13 110 c9 79 18 114 29 123 22 16 43 15 43 -2z m264 -30 c-3 -15 -8
-25 -11 -23 -2 3 -1 17 3 31 3 15 8 25 11 23 2 -3 1 -17 -3 -31z m-1907 -58
c-3 -8 -6 -5 -6 6 -1 11 2 17 5 13 3 -3 4 -12 1 -19z m0 -125 c-3 -10 -5 -4
-5 12 0 17 2 24 5 18 2 -7 2 -21 0 -30z m413 -42 c0 -3 -24 -4 -52 -2 -40 3
-47 6 -28 11 28 7 80 1 80 -9z m1255 -17 c-68 -19 -81 -18 -65 1 8 10 29 15
64 14 l51 -1 -50 -14z m255 -24 c0 -5 -2 -10 -4 -10 -3 0 -8 5 -11 10 -3 6 -1
10 4 10 6 0 11 -4 11 -10z m-1823 -234 l5 -49 -26 19 c-14 11 -26 30 -28 44
-5 61 -3 98 5 93 5 -3 6 -11 3 -19 -3 -8 -1 -14 5 -14 7 0 9 10 5 24 -3 12 -2
26 2 30 7 8 20 -46 29 -128z m1601 6 c2 -7 -4 -15 -13 -18 -20 -8 -27 -1 -19
20 7 18 25 17 32 -2z m-90 -25 c15 2 34 -1 42 -7 13 -9 12 -12 -4 -25 -20 -15
-86 -21 -86 -7 0 18 14 55 17 46 2 -6 16 -9 31 -7z m-1480 -272 c-3 -3 -9 2
-12 12 -6 14 -5 15 5 6 7 -7 10 -15 7 -18z m1859 -27 c-3 -8 -6 -5 -6 6 -1 11
2 17 5 13 3 -3 4 -12 1 -19z m-117 -67 c0 -29 -15 -33 -18 -5 -1 13 3 24 8 24
6 0 10 -9 10 -19z m81 -38 c-12 -20 -14 -14 -5 12 4 9 9 14 11 11 3 -2 0 -13
-6 -23z m-94 -35 c-3 -8 -6 -5 -6 6 -1 11 2 17 5 13 3 -3 4 -12 1 -19z m76
-13 c-3 -9 -8 -14 -10 -11 -3 3 -2 9 2 15 9 16 15 13 8 -4z m-1733 -35 c6 -11
8 -20 6 -20 -3 0 -10 9 -16 20 -6 11 -8 20 -6 20 3 0 10 -9 16 -20z m1356
-122 c3 -12 21 -45 38 -72 17 -28 31 -62 32 -76 1 -25 13 -29 46 -15 13 5 19
-2 27 -32 16 -55 14 -59 -15 -32 l-25 24 9 -25 c6 -14 19 -45 30 -70 20 -46
38 -150 26 -150 -33 0 -182 263 -219 388 -14 45 -14 48 8 64 29 23 34 22 43
-4z m248 -17 c3 -4 -4 -17 -16 -27 -13 -12 -18 -13 -12 -4 5 8 9 18 10 23 3
15 4 17 8 17 3 0 7 -4 10 -9z m-313 -67 c22 -68 123 -259 167 -318 20 -27 41
-55 47 -62 5 -7 6 -16 3 -20 -4 -3 -26 13 -50 36 -24 23 -79 74 -123 113 -134
121 -215 203 -215 218 0 14 127 89 145 85 6 -1 17 -25 26 -52z m194 -24 c5 -9
-21 -40 -33 -40 -4 0 -8 13 -9 29 -2 24 1 28 18 24 10 -3 22 -9 24 -13z m136
8 c0 -7 2 -21 4 -30 2 -10 -1 -18 -6 -18 -5 0 -7 -12 -4 -27 4 -23 4 -25 -4
-8 -13 27 -13 95 -1 95 6 0 10 -6 11 -12z m16 -110 c-3 -8 -6 -5 -6 6 -1 11 2
17 5 13 3 -3 4 -12 1 -19z m-47 -105 c0 -27 -20 -73 -32 -73 -4 0 -8 12 -8 28
0 15 -2 59 -5 97 l-5 70 25 -50 c13 -27 25 -60 25 -72z"/>
<path d="M941 1977 c-33 -156 -41 -217 -48 -384 -3 -84 -10 -150 -15 -147 -4
3 -17 2 -29 -1 -18 -6 -16 -9 18 -26 20 -10 39 -19 41 -19 3 0 2 18 -2 40 -3
23 -2 82 4 133 28 237 42 338 59 402 l17 70 7 -98 c4 -53 12 -119 17 -145 6
-26 15 -73 21 -105 16 -86 23 -62 9 30 -7 43 -18 139 -24 213 -10 125 -12 135
-32 138 -19 3 -23 -7 -43 -101z"/>
<path d="M1060 1958 c0 -68 5 -130 10 -138 7 -10 10 30 10 123 0 85 -4 137
-10 137 -6 0 -10 -47 -10 -122z"/>
<path d="M1893 2040 c0 -25 2 -35 4 -22 2 12 2 32 0 45 -2 12 -4 2 -4 -23z"/>
<path d="M1926 2053 c-2 -10 -7 -43 -10 -73 -8 -69 8 -37 18 38 7 51 2 70 -8
35z"/>
<path d="M1877 1913 c-10 -19 -17 -63 -8 -63 4 0 11 14 15 32 6 31 3 47 -7 31z"/>
<path d="M1873 1453 c9 -2 23 -2 30 0 6 3 -1 5 -18 5 -16 0 -22 -2 -12 -5z"/>
<path d="M2062 1290 c-12 -44 -12 -73 0 -86 8 -8 21 76 16 107 -3 19 -6 15
-16 -21z"/>
<path d="M1245 813 c8 -46 25 -68 25 -32 0 36 -11 69 -22 69 -6 0 -8 -15 -3
-37z"/>
<path d="M733 594 c-41 -17 28 -123 94 -145 45 -15 145 -13 210 5 49 12 166
93 177 121 7 19 -25 20 -126 4 -63 -10 -227 -2 -323 16 -11 2 -26 1 -32 -1z"/>
</g>
</svg>
